<svg xmlns="http://www.w3.org/2000/svg" xmlns:xlink="http://www.w3.org/1999/xlink" width="500" zoomAndPan="magnify" viewBox="0 0 375 374.999991" height="500" preserveAspectRatio="xMidYMid meet" version="1.0"><defs><g/><clipPath id="758660ab81"><path d="M 0.519531 0.160156 L 218.480469 0.160156 L 218.480469 56.902344 L 0.519531 56.902344 Z M 0.519531 0.160156 " clip-rule="nonzero"/></clipPath><clipPath id="574c89a932"><path d="M 39 14 L 218.480469 14 L 218.480469 56.800781 L 39 56.800781 Z M 39 14 " clip-rule="nonzero"/></clipPath><clipPath id="2c72f73ec5"><path d="M 0.519531 28 L 47 28 L 47 45 L 0.519531 45 Z M 0.519531 28 " clip-rule="nonzero"/></clipPath><clipPath id="bf020da7f6"><path d="M 15 0.160156 L 147 0.160156 L 147 17 L 15 17 Z M 15 0.160156 " clip-rule="nonzero"/></clipPath><clipPath id="7e33803170"><rect x="0" width="219" y="0" height="57"/></clipPath><clipPath id="e3e2d8f22e"><rect x="0" width="219" y="0" height="86"/></clipPath></defs><rect x="-37.5" width="450" fill="#ffffff" y="-37.499999" height="449.999989" fill-opacity="1"/><rect x="-37.5" width="450" fill="#ffffff" y="-37.499999" height="449.999989" fill-opacity="1"/><g transform="matrix(1, 0, 0, 1, 78, 146)"><g clip-path="url(#e3e2d8f22e)"><g clip-path="url(#758660ab81)"><g><g clip-path="url(#7e33803170)"><g clip-path="url(#574c89a932)"><path fill="#1f3b61" d="M 218.476562 46.402344 C 218.363281 55.738281 216.570312 56.875 215.542969 56.636719 L 215.71875 47.242188 C 215.835938 41.078125 215.851562 39.675781 211.808594 37.128906 C 196.234375 27.167969 166.695312 27.460938 149.265625 27.261719 C 131.105469 27.050781 102.347656 26.449219 60.699219 24.8125 C 52.324219 24.484375 43.472656 22.324219 39.480469 14.046875 C 46.042969 19.761719 53.757812 19.886719 59.542969 20.0625 C 71.667969 20.429688 101.464844 21.160156 149.28125 22.609375 C 170.882812 23.261719 201.300781 23.324219 218.488281 37.339844 Z M 218.476562 46.402344 " fill-opacity="1" fill-rule="evenodd"/></g><path fill="#1f3b61" d="M 166.730469 34.359375 C 165.265625 35.644531 163.460938 37.007812 163.507812 38.449219 C 163.507812 38.449219 140.3125 37.058594 93.914062 34.28125 C 93.914062 34.28125 118.773438 34.304688 166.730469 34.359375 " fill-opacity="1" fill-rule="evenodd"/><path fill="#1f3b61" d="M 197.660156 46.53125 C 188.289062 26.882812 160.410156 27.136719 152.316406 47.34375 C 152.277344 47.628906 152.6875 47.914062 153.007812 47.363281 C 160.71875 34.53125 188.636719 34.390625 196.949219 46.769531 C 197.261719 47.457031 198.082031 47.625 197.660156 46.53125 " fill-opacity="1" fill-rule="evenodd"/><path fill="#1f3b61" d="M 122.140625 19.871094 C 118.832031 19.578125 117.605469 19.535156 117.464844 16.425781 C 117.371094 14.292969 117.425781 12.429688 119.472656 11.558594 C 124.289062 11.339844 128.191406 12.664062 131.1875 15.527344 C 133.332031 17.574219 133.121094 19.394531 130.417969 19.796875 L 135.886719 25.433594 C 131.996094 25.613281 130.050781 25.707031 130.050781 25.707031 C 128.082031 22.003906 127.335938 20.335938 127.335938 20.335938 C 128.0625 20.210938 128.605469 20.058594 129.132812 19.878906 Z M 122.140625 19.871094 " fill-opacity="1" fill-rule="evenodd"/><path fill="#1f3b61" d="M 216.71875 46.730469 C 216.964844 44.148438 217.414062 44.316406 216.730469 42.414062 C 208.375 42.402344 203.53125 39.992188 203.53125 39.992188 C 205.9375 43.257812 208.863281 45.503906 212.320312 46.726562 C 215.25 46.730469 216.71875 46.730469 216.71875 46.730469 " fill-opacity="1" fill-rule="evenodd"/><g clip-path="url(#2c72f73ec5)"><path fill="#1f3b61" d="M 45.90625 43.441406 C 36.53125 23.792969 8.65625 24.046875 0.5625 44.253906 C 0.523438 44.539062 0.929688 44.824219 1.253906 44.273438 C 8.960938 31.441406 36.878906 31.304688 45.195312 43.683594 C 45.507812 44.371094 46.328125 44.539062 45.90625 43.441406 " fill-opacity="1" fill-rule="evenodd"/></g><g clip-path="url(#bf020da7f6)"><path fill="#1f3b61" d="M 146.210938 16.386719 C 146.210938 16.386719 132.03125 1.777344 109.363281 0.476562 C 86.695312 -0.828125 66.378906 4.222656 34.015625 2.78125 C 21.65625 2.175781 15.742188 1.277344 15.742188 1.277344 C 15.742188 1.277344 39.308594 9.289062 104.503906 3.339844 C 115.917969 2.519531 126.90625 5.242188 146.210938 16.386719 Z M 146.210938 16.386719 " fill-opacity="1" fill-rule="evenodd"/></g></g></g></g><g fill="#1f3b61" fill-opacity="1"><g transform="translate(6.448644, 77.463871)"><g><path d="M 8.953125 0.28125 C 7.304688 0.28125 5.894531 -0.0703125 4.71875 -0.78125 C 3.539062 -1.488281 2.632812 -2.472656 2 -3.734375 C 1.363281 -4.992188 1.046875 -6.453125 1.046875 -8.109375 C 1.046875 -9.773438 1.363281 -11.242188 2 -12.515625 C 2.632812 -13.785156 3.539062 -14.773438 4.71875 -15.484375 C 5.894531 -16.191406 7.304688 -16.546875 8.953125 -16.546875 C 10.898438 -16.546875 12.5 -16.0625 13.75 -15.09375 C 15 -14.125 15.78125 -12.765625 16.09375 -11.015625 L 12.8125 -11.015625 C 12.613281 -11.898438 12.179688 -12.59375 11.515625 -13.09375 C 10.859375 -13.601562 9.988281 -13.859375 8.90625 -13.859375 C 7.40625 -13.859375 6.226562 -13.34375 5.375 -12.3125 C 4.519531 -11.289062 4.09375 -9.890625 4.09375 -8.109375 C 4.09375 -6.328125 4.519531 -4.925781 5.375 -3.90625 C 6.226562 -2.894531 7.40625 -2.390625 8.90625 -2.390625 C 9.988281 -2.390625 10.859375 -2.625 11.515625 -3.09375 C 12.179688 -3.570312 12.613281 -4.226562 12.8125 -5.0625 L 16.09375 -5.0625 C 15.78125 -3.394531 15 -2.085938 13.75 -1.140625 C 12.5 -0.191406 10.898438 0.28125 8.953125 0.28125 Z M 8.953125 0.28125 "/></g></g></g><g fill="#1f3b61" fill-opacity="1"><g transform="translate(23.579321, 77.463871)"><g><path d="M 5.484375 0.28125 C 4.492188 0.28125 3.679688 0.125 3.046875 -0.1875 C 2.410156 -0.507812 1.9375 -0.929688 1.625 -1.453125 C 1.3125 -1.984375 1.15625 -2.566406 1.15625 -3.203125 C 1.15625 -4.273438 1.570312 -5.144531 2.40625 -5.8125 C 3.25 -6.476562 4.507812 -6.8125 6.1875 -6.8125 L 9.109375 -6.8125 L 9.109375 -7.09375 C 9.109375 -7.882812 8.882812 -8.460938 8.4375 -8.828125 C 7.988281 -9.203125 7.429688 -9.390625 6.765625 -9.390625 C 6.160156 -9.390625 5.632812 -9.242188 5.1875 -8.953125 C 4.738281 -8.671875 4.457031 -8.253906 4.34375 -7.703125 L 1.4375 -7.703125 C 1.519531 -8.535156 1.800781 -9.257812 2.28125 -9.875 C 2.769531 -10.5 3.398438 -10.976562 4.171875 -11.3125 C 4.953125 -11.644531 5.820312 -11.8125 6.78125 -11.8125 C 8.425781 -11.8125 9.722656 -11.398438 10.671875 -10.578125 C 11.617188 -9.753906 12.09375 -8.59375 12.09375 -7.09375 L 12.09375 0 L 9.5625 0 L 9.28125 -1.859375 C 8.9375 -1.242188 8.457031 -0.734375 7.84375 -0.328125 C 7.226562 0.078125 6.441406 0.28125 5.484375 0.28125 Z M 6.15625 -2.046875 C 7.007812 -2.046875 7.671875 -2.320312 8.140625 -2.875 C 8.617188 -3.4375 8.921875 -4.128906 9.046875 -4.953125 L 6.515625 -4.953125 C 5.722656 -4.953125 5.15625 -4.804688 4.8125 -4.515625 C 4.46875 -4.234375 4.296875 -3.882812 4.296875 -3.46875 C 4.296875 -3.019531 4.46875 -2.671875 4.8125 -2.421875 C 5.15625 -2.171875 5.601562 -2.046875 6.15625 -2.046875 Z M 6.15625 -2.046875 "/></g></g></g><g fill="#1f3b61" fill-opacity="1"><g transform="translate(36.990998, 77.463871)"><g><path d="M 1.515625 0 L 1.515625 -11.53125 L 4.15625 -11.53125 L 4.4375 -9.375 C 4.851562 -10.113281 5.421875 -10.703125 6.140625 -11.140625 C 6.867188 -11.585938 7.722656 -11.8125 8.703125 -11.8125 L 8.703125 -8.671875 L 7.859375 -8.671875 C 7.203125 -8.671875 6.617188 -8.566406 6.109375 -8.359375 C 5.597656 -8.160156 5.195312 -7.8125 4.90625 -7.3125 C 4.625 -6.820312 4.484375 -6.132812 4.484375 -5.25 L 4.484375 0 Z M 1.515625 0 "/></g></g></g><g fill="#1f3b61" fill-opacity="1"><g transform="translate(46.19554, 77.463871)"><g><path d="M 1.515625 0 L 1.515625 -16.734375 L 4.484375 -16.734375 L 4.484375 0 Z M 1.515625 0 "/></g></g></g><g fill="#1f3b61" fill-opacity="1"><g transform="translate(52.215679, 77.463871)"><g><path d="M 5.484375 0.28125 C 4.492188 0.28125 3.679688 0.125 3.046875 -0.1875 C 2.410156 -0.507812 1.9375 -0.929688 1.625 -1.453125 C 1.3125 -1.984375 1.15625 -2.566406 1.15625 -3.203125 C 1.15625 -4.273438 1.570312 -5.144531 2.40625 -5.8125 C 3.25 -6.476562 4.507812 -6.8125 6.1875 -6.8125 L 9.109375 -6.8125 L 9.109375 -7.09375 C 9.109375 -7.882812 8.882812 -8.460938 8.4375 -8.828125 C 7.988281 -9.203125 7.429688 -9.390625 6.765625 -9.390625 C 6.160156 -9.390625 5.632812 -9.242188 5.1875 -8.953125 C 4.738281 -8.671875 4.457031 -8.253906 4.34375 -7.703125 L 1.4375 -7.703125 C 1.519531 -8.535156 1.800781 -9.257812 2.28125 -9.875 C 2.769531 -10.5 3.398438 -10.976562 4.171875 -11.3125 C 4.953125 -11.644531 5.820312 -11.8125 6.78125 -11.8125 C 8.425781 -11.8125 9.722656 -11.398438 10.671875 -10.578125 C 11.617188 -9.753906 12.09375 -8.59375 12.09375 -7.09375 L 12.09375 0 L 9.5625 0 L 9.28125 -1.859375 C 8.9375 -1.242188 8.457031 -0.734375 7.84375 -0.328125 C 7.226562 0.078125 6.441406 0.28125 5.484375 0.28125 Z M 6.15625 -2.046875 C 7.007812 -2.046875 7.671875 -2.320312 8.140625 -2.875 C 8.617188 -3.4375 8.921875 -4.128906 9.046875 -4.953125 L 6.515625 -4.953125 C 5.722656 -4.953125 5.15625 -4.804688 4.8125 -4.515625 C 4.46875 -4.234375 4.296875 -3.882812 4.296875 -3.46875 C 4.296875 -3.019531 4.46875 -2.671875 4.8125 -2.421875 C 5.15625 -2.171875 5.601562 -2.046875 6.15625 -2.046875 Z M 6.15625 -2.046875 "/></g></g></g><g fill="#1f3b61" fill-opacity="1"><g transform="translate(65.232179, 77.463871)"><g><path d="M 2.953125 5.109375 L 5.625 -0.765625 L 4.921875 -0.765625 L 0.4375 -11.53125 L 3.671875 -11.53125 L 6.90625 -3.421875 L 10.28125 -11.53125 L 13.4375 -11.53125 L 6.109375 5.109375 Z M 2.953125 5.109375 "/></g></g></g><g fill="#1f3b61" fill-opacity="1"><g transform="translate(79.108726, 77.463871)"><g/></g></g><g fill="#1f3b61" fill-opacity="1"><g transform="translate(84.640747, 77.463871)"><g><path d="M 1.578125 0 L 1.578125 -16.28125 L 12.09375 -16.28125 L 12.09375 -13.875 L 4.5625 -13.875 L 4.5625 -9.328125 L 10.65625 -9.328125 L 10.65625 -6.96875 L 4.5625 -6.96875 L 4.5625 0 Z M 1.578125 0 "/></g></g></g><g fill="#1f3b61" fill-opacity="1"><g transform="translate(96.843694, 77.463871)"><g><path d="M 7.046875 0.28125 C 5.929688 0.28125 4.925781 0.0234375 4.03125 -0.484375 C 3.144531 -0.992188 2.441406 -1.703125 1.921875 -2.609375 C 1.398438 -3.515625 1.140625 -4.566406 1.140625 -5.765625 C 1.140625 -6.960938 1.398438 -8.015625 1.921875 -8.921875 C 2.453125 -9.828125 3.160156 -10.535156 4.046875 -11.046875 C 4.941406 -11.554688 5.945312 -11.8125 7.0625 -11.8125 C 8.164062 -11.8125 9.160156 -11.554688 10.046875 -11.046875 C 10.941406 -10.535156 11.648438 -9.828125 12.171875 -8.921875 C 12.691406 -8.015625 12.953125 -6.960938 12.953125 -5.765625 C 12.953125 -4.566406 12.691406 -3.515625 12.171875 -2.609375 C 11.648438 -1.703125 10.941406 -0.992188 10.046875 -0.484375 C 9.148438 0.0234375 8.148438 0.28125 7.046875 0.28125 Z M 7.046875 -2.296875 C 7.816406 -2.296875 8.488281 -2.585938 9.0625 -3.171875 C 9.632812 -3.753906 9.921875 -4.617188 9.921875 -5.765625 C 9.921875 -6.910156 9.632812 -7.773438 9.0625 -8.359375 C 8.488281 -8.941406 7.820312 -9.234375 7.0625 -9.234375 C 6.269531 -9.234375 5.59375 -8.941406 5.03125 -8.359375 C 4.46875 -7.773438 4.1875 -6.910156 4.1875 -5.765625 C 4.1875 -4.617188 4.46875 -3.753906 5.03125 -3.171875 C 5.59375 -2.585938 6.265625 -2.296875 7.046875 -2.296875 Z M 7.046875 -2.296875 "/></g></g></g><g fill="#1f3b61" fill-opacity="1"><g transform="translate(110.929437, 77.463871)"><g><path d="M 1.515625 0 L 1.515625 -11.53125 L 4.15625 -11.53125 L 4.4375 -9.375 C 4.851562 -10.113281 5.421875 -10.703125 6.140625 -11.140625 C 6.867188 -11.585938 7.722656 -11.8125 8.703125 -11.8125 L 8.703125 -8.671875 L 7.859375 -8.671875 C 7.203125 -8.671875 6.617188 -8.566406 6.109375 -8.359375 C 5.597656 -8.160156 5.195312 -7.8125 4.90625 -7.3125 C 4.625 -6.820312 4.484375 -6.132812 4.484375 -5.25 L 4.484375 0 Z M 1.515625 0 "/></g></g></g><g fill="#1f3b61" fill-opacity="1"><g transform="translate(120.133979, 77.463871)"><g><path d="M 6.65625 0 C 5.445312 0 4.476562 -0.289062 3.75 -0.875 C 3.019531 -1.46875 2.65625 -2.515625 2.65625 -4.015625 L 2.65625 -9.046875 L 0.671875 -9.046875 L 0.671875 -11.53125 L 2.65625 -11.53125 L 3 -14.625 L 5.625 -14.625 L 5.625 -11.53125 L 8.734375 -11.53125 L 8.734375 -9.046875 L 5.625 -9.046875 L 5.625 -4 C 5.625 -3.4375 5.742188 -3.050781 5.984375 -2.84375 C 6.222656 -2.632812 6.640625 -2.53125 7.234375 -2.53125 L 8.671875 -2.53125 L 8.671875 0 Z M 6.65625 0 "/></g></g></g><g fill="#1f3b61" fill-opacity="1"><g transform="translate(129.919614, 77.463871)"><g/></g></g><g fill="#1f3b61" fill-opacity="1"><g transform="translate(135.451635, 77.463871)"><g><path d="M 4.875 0 L 0.578125 -16.28125 L 3.765625 -16.28125 L 6.703125 -3.328125 L 10.140625 -16.28125 L 13.421875 -16.28125 L 16.765625 -3.328125 L 19.6875 -16.28125 L 22.90625 -16.28125 L 18.484375 0 L 14.953125 0 L 11.71875 -12.0625 L 8.390625 0 Z M 4.875 0 "/></g></g></g><g fill="#1f3b61" fill-opacity="1"><g transform="translate(157.602867, 77.463871)"><g><path d="M 5.484375 0.28125 C 4.492188 0.28125 3.679688 0.125 3.046875 -0.1875 C 2.410156 -0.507812 1.9375 -0.929688 1.625 -1.453125 C 1.3125 -1.984375 1.15625 -2.566406 1.15625 -3.203125 C 1.15625 -4.273438 1.570312 -5.144531 2.40625 -5.8125 C 3.25 -6.476562 4.507812 -6.8125 6.1875 -6.8125 L 9.109375 -6.8125 L 9.109375 -7.09375 C 9.109375 -7.882812 8.882812 -8.460938 8.4375 -8.828125 C 7.988281 -9.203125 7.429688 -9.390625 6.765625 -9.390625 C 6.160156 -9.390625 5.632812 -9.242188 5.1875 -8.953125 C 4.738281 -8.671875 4.457031 -8.253906 4.34375 -7.703125 L 1.4375 -7.703125 C 1.519531 -8.535156 1.800781 -9.257812 2.28125 -9.875 C 2.769531 -10.5 3.398438 -10.976562 4.171875 -11.3125 C 4.953125 -11.644531 5.820312 -11.8125 6.78125 -11.8125 C 8.425781 -11.8125 9.722656 -11.398438 10.671875 -10.578125 C 11.617188 -9.753906 12.09375 -8.59375 12.09375 -7.09375 L 12.09375 0 L 9.5625 0 L 9.28125 -1.859375 C 8.9375 -1.242188 8.457031 -0.734375 7.84375 -0.328125 C 7.226562 0.078125 6.441406 0.28125 5.484375 0.28125 Z M 6.15625 -2.046875 C 7.007812 -2.046875 7.671875 -2.320312 8.140625 -2.875 C 8.617188 -3.4375 8.921875 -4.128906 9.046875 -4.953125 L 6.515625 -4.953125 C 5.722656 -4.953125 5.15625 -4.804688 4.8125 -4.515625 C 4.46875 -4.234375 4.296875 -3.882812 4.296875 -3.46875 C 4.296875 -3.019531 4.46875 -2.671875 4.8125 -2.421875 C 5.15625 -2.171875 5.601562 -2.046875 6.15625 -2.046875 Z M 6.15625 -2.046875 "/></g></g></g><g fill="#1f3b61" fill-opacity="1"><g transform="translate(170.619367, 77.463871)"><g><path d="M 2.953125 5.109375 L 5.625 -0.765625 L 4.921875 -0.765625 L 0.4375 -11.53125 L 3.671875 -11.53125 L 6.90625 -3.421875 L 10.28125 -11.53125 L 13.4375 -11.53125 L 6.109375 5.109375 Z M 2.953125 5.109375 "/></g></g></g><g fill="#1f3b61" fill-opacity="1"><g transform="translate(184.495915, 77.463871)"><g><path d="M 1.515625 0 L 1.515625 -11.53125 L 4.140625 -11.53125 L 4.375 -9.578125 C 4.726562 -10.265625 5.238281 -10.804688 5.90625 -11.203125 C 6.582031 -11.609375 7.378906 -11.8125 8.296875 -11.8125 C 9.722656 -11.8125 10.832031 -11.359375 11.625 -10.453125 C 12.414062 -9.554688 12.8125 -8.242188 12.8125 -6.515625 L 12.8125 0 L 9.828125 0 L 9.828125 -6.234375 C 9.828125 -7.222656 9.625 -7.976562 9.21875 -8.5 C 8.820312 -9.03125 8.195312 -9.296875 7.34375 -9.296875 C 6.507812 -9.296875 5.820312 -9 5.28125 -8.40625 C 4.75 -7.820312 4.484375 -7.003906 4.484375 -5.953125 L 4.484375 0 Z M 1.515625 0 "/></g></g></g><g fill="#1f3b61" fill-opacity="1"><g transform="translate(198.628154, 77.463871)"><g><path d="M 7.109375 0.28125 C 5.953125 0.28125 4.921875 0.0351562 4.015625 -0.453125 C 3.117188 -0.953125 2.414062 -1.648438 1.90625 -2.546875 C 1.394531 -3.453125 1.140625 -4.492188 1.140625 -5.671875 C 1.140625 -6.867188 1.390625 -7.929688 1.890625 -8.859375 C 2.398438 -9.785156 3.097656 -10.507812 3.984375 -11.03125 C 4.878906 -11.550781 5.929688 -11.8125 7.140625 -11.8125 C 8.265625 -11.8125 9.257812 -11.5625 10.125 -11.0625 C 11 -10.570312 11.679688 -9.894531 12.171875 -9.03125 C 12.660156 -8.175781 12.90625 -7.21875 12.90625 -6.15625 C 12.90625 -5.988281 12.898438 -5.8125 12.890625 -5.625 C 12.878906 -5.4375 12.867188 -5.242188 12.859375 -5.046875 L 4.09375 -5.046875 C 4.15625 -4.148438 4.46875 -3.441406 5.03125 -2.921875 C 5.59375 -2.410156 6.28125 -2.15625 7.09375 -2.15625 C 7.695312 -2.15625 8.203125 -2.289062 8.609375 -2.5625 C 9.023438 -2.832031 9.332031 -3.1875 9.53125 -3.625 L 12.5625 -3.625 C 12.34375 -2.894531 11.976562 -2.234375 11.46875 -1.640625 C 10.96875 -1.046875 10.347656 -0.578125 9.609375 -0.234375 C 8.878906 0.109375 8.046875 0.28125 7.109375 0.28125 Z M 7.140625 -9.390625 C 6.410156 -9.390625 5.765625 -9.179688 5.203125 -8.765625 C 4.648438 -8.359375 4.296875 -7.738281 4.140625 -6.90625 L 9.875 -6.90625 C 9.832031 -7.664062 9.554688 -8.269531 9.046875 -8.71875 C 8.535156 -9.164062 7.898438 -9.390625 7.140625 -9.390625 Z M 7.140625 -9.390625 "/></g></g></g></g></g></svg>