<svg xmlns="http://www.w3.org/2000/svg" xmlns:xlink="http://www.w3.org/1999/xlink" width="500" zoomAndPan="magnify" viewBox="0 0 375 374.999991" height="500" preserveAspectRatio="xMidYMid meet" version="1.0"><defs><g/><clipPath id="d8615bd832"><rect x="0" width="340" y="0" height="79"/></clipPath></defs><path fill="#22aa6d" d="M 188.105469 153.402344 C 157.296875 149.039062 72.117188 155.089844 92.964844 182.425781 C 94.121094 183.949219 95.910156 185.769531 97.382812 186.992188 C 98.800781 188.152344 106.117188 193.847656 111.808594 191.6875 C 156.867188 165.9375 234.328125 186.359375 228.40625 213.871094 C 226.457031 222.886719 216.144531 229.605469 205.027344 233.71875 C 205.039062 233.777344 205.027344 233.84375 205.039062 233.894531 C 208.542969 232.804688 209.648438 232.386719 213.007812 231.082031 C 221.085938 227.621094 221.910156 227.257812 227.34375 224.339844 C 231.003906 222.183594 235.835938 219.21875 239.367188 216.867188 C 274.488281 190.191406 240.636719 160.855469 188.105469 153.402344 " fill-opacity="1" fill-rule="evenodd"/><path fill="#22aa6d" d="M 118.625 139.125 C 209.316406 123.550781 284.863281 162.53125 262.625 198.878906 C 262.703125 198.953125 262.796875 199.007812 262.878906 199.082031 C 267.820312 192.894531 271.65625 187.539062 277.023438 177.429688 L 279.238281 172.894531 C 302.839844 110.746094 151.148438 92.105469 109.371094 108.960938 C 100.289062 112.617188 96.191406 122.300781 100.277344 130.535156 C 102.117188 134.261719 106.960938 140.324219 118.625 139.125 " fill-opacity="1" fill-rule="evenodd"/><path fill="#22aa6d" d="M 204.390625 90.902344 C 214.738281 92.890625 224.558594 95.507812 233.570312 98.695312 C 242.535156 101.871094 250.742188 105.609375 257.835938 109.851562 C 264.933594 114.089844 270.917969 118.832031 275.5625 124.019531 C 277.730469 126.429688 279.523438 128.878906 280.964844 131.328125 C 282.4375 133.757812 283.515625 136.230469 284.289062 138.6875 C 285.050781 141.136719 285.460938 143.589844 285.558594 146.023438 C 285.605469 147.050781 285.542969 148.050781 285.464844 149.054688 C 285.511719 149.0625 285.558594 149.089844 285.621094 149.101562 C 287.128906 140.417969 287.507812 137.292969 287.855469 127.382812 C 287.746094 123.871094 287.730469 119.175781 287.472656 115.664062 C 286.304688 108.53125 282.785156 86.820312 237.480469 69.613281 C 236.769531 69.34375 166.277344 44.164062 154.097656 65.003906 C 152.640625 67.488281 152.085938 71.265625 152.78125 73.976562 C 153.589844 77.171875 157.089844 84.824219 172.089844 86.851562 C 183.214844 87.527344 194.066406 88.90625 204.390625 90.902344 " fill-opacity="1" fill-rule="evenodd"/><path fill="#22aa6d" d="M 231.210938 54.140625 C 235.816406 55.714844 240.226562 57.441406 244.402344 59.3125 C 248.554688 61.171875 252.46875 63.183594 256.109375 65.328125 C 259.738281 67.464844 263.082031 69.746094 266.105469 72.144531 C 269.132812 74.550781 271.839844 77.0625 274.199219 79.703125 C 275.246094 80.886719 276.210938 82.082031 277.082031 83.269531 C 277.96875 84.460938 278.761719 85.652344 279.441406 86.867188 C 279.617188 87.140625 279.726562 87.425781 279.898438 87.707031 C 279.914062 87.25 274.957031 74.410156 270.441406 66.503906 C 267.652344 61.601562 264.863281 56.597656 255.914062 49.238281 C 253.238281 47.023438 250.164062 45.019531 246.929688 43.089844 C 243.632812 41.160156 240.117188 39.351562 236.382812 37.667969 C 232.628906 35.984375 228.667969 34.429688 224.515625 33.003906 C 210.53125 29.148438 211.828125 37.277344 213.398438 40.429688 C 214.339844 42.34375 218.425781 49.015625 231.210938 54.140625 " fill-opacity="1" fill-rule="evenodd"/><path fill="#22aa6d" d="M 170.808594 198.234375 C 150.910156 195.929688 96.234375 201.199219 110.085938 218.441406 C 110.847656 219.410156 112.035156 220.546875 113.003906 221.300781 C 113.933594 222.03125 118.726562 225.574219 122.351562 224.097656 C 162.234375 199.941406 215.425781 223.863281 170.566406 241.75 C 170.566406 241.785156 170.566406 241.828125 170.566406 241.859375 C 218.492188 225.597656 218.902344 203.832031 170.808594 198.234375 " fill-opacity="1" fill-rule="evenodd"/><g transform="matrix(1, 0, 0, 1, 19, 255)"><g clip-path="url(#d8615bd832)"><g fill="#ffffff" fill-opacity="1"><g transform="translate(2.035862, 56.240397)"><g><path d="M 43.359375 0 L 35.109375 -28.96875 L 26.84375 0 L 13.765625 0 L -0.9375 -51.625 L 12.140625 -51.625 L 20.96875 -16.203125 L 21.28125 -16.203125 L 30.65625 -51.625 L 39.546875 -51.625 L 48.9375 -16.203125 L 49.25 -16.203125 L 58.078125 -51.625 L 71.09375 -51.625 L 56.390625 0 Z M 43.359375 0 "/></g></g></g><g fill="#ffffff" fill-opacity="1"><g transform="translate(76.319455, 56.240397)"><g><path d="M 33.296875 -51.625 L 33.296875 -41.296875 L 15.515625 -41.296875 L 15.515625 -31.03125 L 32.546875 -31.03125 L 32.546875 -20.71875 L 15.515625 -20.71875 L 15.515625 -10.328125 L 33.296875 -10.328125 L 33.296875 0 L 3.75 0 L 3.75 -51.625 Z M 33.296875 -51.625 "/></g></g></g><g fill="#ffffff" fill-opacity="1"><g transform="translate(116.746752, 56.240397)"><g><path d="M 3.75 -51.625 L 19.78125 -51.625 C 24.613281 -51.625 28.46875 -50.59375 31.34375 -48.53125 C 34.226562 -46.46875 35.671875 -43.117188 35.671875 -38.484375 C 35.671875 -33.304688 33.519531 -29.613281 29.21875 -27.40625 C 36.5625 -26.113281 40.234375 -21.773438 40.234375 -14.390625 C 40.234375 -10.054688 38.726562 -6.570312 35.71875 -3.9375 C 32.71875 -1.3125 28.59375 0 23.34375 0 L 3.75 0 Z M 15.515625 -31.421875 L 16.453125 -31.421875 C 19.085938 -31.421875 21.050781 -31.878906 22.34375 -32.796875 C 23.632812 -33.710938 24.28125 -35.210938 24.28125 -37.296875 C 24.28125 -40.796875 21.671875 -42.546875 16.453125 -42.546875 L 15.515625 -42.546875 Z M 15.515625 -9.078125 L 19.21875 -9.078125 C 24.96875 -9.078125 27.84375 -10.992188 27.84375 -14.828125 C 27.84375 -17.117188 27.125 -18.765625 25.6875 -19.765625 C 24.25 -20.773438 22.09375 -21.28125 19.21875 -21.28125 L 15.515625 -21.28125 Z M 15.515625 -9.078125 "/></g></g></g><g fill="#22aa6d" fill-opacity="1"><g transform="translate(162.562234, 56.240397)"><g/></g></g><g fill="#22aa6d" fill-opacity="1"><g transform="translate(183.777162, 56.240397)"><g><path d="M 1.4375 -25.84375 C 1.4375 -33.3125 3.976562 -39.628906 9.0625 -44.796875 C 14.15625 -49.972656 20.289062 -52.5625 27.46875 -52.5625 C 34.6875 -52.5625 40.816406 -49.984375 45.859375 -44.828125 C 50.910156 -39.679688 53.4375 -33.351562 53.4375 -25.84375 C 53.4375 -18.289062 50.953125 -11.9375 45.984375 -6.78125 C 41.023438 -1.632812 34.851562 0.9375 27.46875 0.9375 C 19.914062 0.9375 13.6875 -1.613281 8.78125 -6.71875 C 3.882812 -11.832031 1.4375 -18.207031 1.4375 -25.84375 Z M 14.140625 -25.84375 C 14.140625 -23.132812 14.554688 -20.660156 15.390625 -18.421875 C 16.222656 -16.191406 17.679688 -14.304688 19.765625 -12.765625 C 21.859375 -11.222656 24.425781 -10.453125 27.46875 -10.453125 C 31.851562 -10.453125 35.160156 -11.953125 37.390625 -14.953125 C 39.617188 -17.960938 40.734375 -21.59375 40.734375 -25.84375 C 40.734375 -30.0625 39.597656 -33.679688 37.328125 -36.703125 C 35.054688 -39.722656 31.769531 -41.234375 27.46875 -41.234375 C 23.21875 -41.234375 19.929688 -39.722656 17.609375 -36.703125 C 15.296875 -33.679688 14.140625 -30.0625 14.140625 -25.84375 Z M 14.140625 -25.84375 "/></g></g></g><g fill="#22aa6d" fill-opacity="1"><g transform="translate(242.791004, 56.240397)"><g><path d="M 15.515625 -32.046875 L 15.515625 0 L 3.75 0 L 3.75 -51.625 L 15.515625 -51.625 L 36.046875 -19.59375 L 36.171875 -19.59375 L 36.171875 -51.625 L 47.9375 -51.625 L 47.9375 0 L 36.171875 0 L 15.640625 -32.046875 Z M 15.515625 -32.046875 "/></g></g></g><g fill="#22aa6d" fill-opacity="1"><g transform="translate(298.613225, 56.240397)"><g><path d="M 33.296875 -51.625 L 33.296875 -41.296875 L 15.515625 -41.296875 L 15.515625 -31.03125 L 32.546875 -31.03125 L 32.546875 -20.71875 L 15.515625 -20.71875 L 15.515625 -10.328125 L 33.296875 -10.328125 L 33.296875 0 L 3.75 0 L 3.75 -51.625 Z M 33.296875 -51.625 "/></g></g></g></g></g></svg>